<svg xmlns="http://www.w3.org/2000/svg" viewBox="0 0 720 980" fill="none">
  <g stroke="#b7aa77" stroke-width="2.4" stroke-linecap="round" stroke-linejoin="round" opacity=".72">
    <path d="M360 42c22 32 48 45 79 39 38-7 61 9 75 43 26-7 47-1 63 18 16 20 16 43 3 69 29 16 45 40 42 72-3 33-22 54-55 64 12 29 8 54-12 75-19 21-44 27-74 17-11 31-32 50-65 51-24 1-43-8-56-26-13 18-32 27-56 26-33-1-54-20-65-51-30 10-55 4-74-17-20-21-24-46-12-75-33-10-52-31-55-64-3-32 13-56 42-72-13-26-13-49 3-69 16-19 37-25 63-18 14-34 37-50 75-43 31 6 57-7 79-39Z"/>
    <path d="M360 90c16 24 35 34 58 30 29-5 46 7 56 33 20-6 36-1 48 14 12 15 12 32 2 52 22 12 34 30 32 55-2 24-16 40-42 48 9 22 6 41-9 57-14 16-33 20-56 13-8 23-24 38-49 39-18 1-31-6-40-20-9 14-22 21-40 20-25-1-41-16-49-39-23 7-42 3-56-13-15-16-18-35-9-57-26-8-40-24-42-48-2-25 10-43 32-55-10-20-10-37 2-52 12-15 28-20 48-14 10-26 27-38 56-33 23 4 42-6 58-30Z"/>
    <path d="M360 42c-3 30-18 47-45 51M360 42c3 30 18 47 45 51M103 246c28-6 49 1 63 23M617 246c-28-6-49 1-63 23M103 734c28 6 49-1 63-23M617 734c-28 6-49-1-63-23M360 938c-3-30-18-47-45-51M360 938c3-30 18-47 45-51"/>
    <path d="M126 159c-23 13-37 31-41 55M594 159c23 13 37 31 41 55M126 821c-23-13-37-31-41-55M594 821c23-13 37-31 41-55"/>
    <path d="M203 115c-18 10-29 24-34 42M517 115c18 10 29 24 34 42M203 865c-18-10-29-24-34-42M517 865c18-10 29-24 34-42"/>
    <path d="M75 300c24 7 42 21 54 42M645 300c-24 7-42 21-54 42M75 680c24-7 42-21 54-42M645 680c-24-7-42-21-54-42"/>
    <path d="M280 82c-16-24-13-45 9-63 3 22 15 36 36 43M440 82c16-24 13-45-9-63-3 22-15 36-36 43M280 898c-16 24-13 45 9 63 3-22 15-36 36-43M440 898c16 24 13 45-9 63-3-22-15-36-36-43"/>
    <path d="M202 198c-23-9-43-5-61 13 21 5 34 18 40 38M518 198c23-9 43-5 61 13-21 5-34 18-40 38M202 782c-23 9-43 5-61-13 21-5 34-18 40-38M518 782c23 9 43 5 61-13-21-5-34-18-40-38"/>
  </g>
</svg>
